<svg width="900" height="260" version="1.1" viewBox="0 -6 280 88" xml:space="preserve" xmlns="http://www.w3.org/2000/svg"><g transform="translate(-4.6199 -5.0182)"><path d="m177.13 6.7971c2.1926 2.8779 6.7839 5.56 2.6458 8.9958v0.26458c0.68369-0.10821 3.7722 0.036 2.7421 1.4531-0.64796 0.89139-3.0438 1.2764-4.065 1.6309-3.765 1.3073-7.8386 3.3046-11.906 3.266 2.3109 8.1187 9.6888 2.3029 14.552 1.5875-2.4268 2.4199-4.4818 4.2095-4.0024 7.9375 0.1434 1.1144 0.32173 2.7353 1.646 3.0488 1.6677 0.39476 3.5179-1.447 5.0022-1.9905-7.1882 10.203-23.15 13.267-34.66 14.817 0.84799 4.0838 5.7457 3.6962 8.7312 3.0126 9.0924-2.082 18.645-4.3601 27.517-7.2459-0.9226 2.7136-4.0476 5.3705-5.7288 7.7851-2.4194 3.475-4.5035 9.3379-4.3587 13.646 0.0791 2.354 0.96837 5.6975 2.7067 7.3287 2.8302 2.6556 5.5711 0.73369 5.2642-2.8308 2.4048 1.17 4.0142 5.5171 6.6249 5.8089 14.6 1.6325 12.952-29.433-2.3916-22.379-1.9465 0.89509-3.501 2.1106-5.0271 3.6052-0.32835-6.7651 9.5874-14.235 15.875-14.542 3.9455-0.19208 10.58 1.3377 13.939-1.3359 2.4389-1.9418-1.8079-3.4216-3.0909-3.7285-4.1434-0.99139-9.1122-0.29792-13.229 0.58658-3.5957 0.77232-7.2316 1.4124-10.848 2.086 3.1255-2.4559 12.298-8.6617 4.7625-11.518-0.8718-0.33047-1.7248-0.38074-2.6458-0.38841 1.7994-3.3393 8.2209-5.3533 8.8299-9.2604 0.62786-4.0275-5.3126-1.7486-6.8183-3.1173-0.98875-0.89879-0.81862-3.7986-1.4822-5.0808-1.8875-3.6467-6.9961-4.658-10.584-3.4435m-150.81 0.52916c0.47255 1.0935 1.5012 1.7619 1.9098 2.9104 1.1639 3.2742 0.73078 7.924 0.73607 11.377 0.0019 1.1927 0.70062 4.6704-0.79375 4.7625 0.93054 9.3562-12.483 9.7107-19.05 12.171 2.4323 3.4216 9.4626 5.6901 13.494 4.3291 1.4383-0.48551 4.1592-3.8989 5.7367-3.2041 1.0123 0.44609 0.6133 2.7654 0.6133 3.6375 0 3.3988-1.0909 8.3881-5.0271 9.525-1.2504 4.455-6.8667 5.6208-10.039 7.8325-1.1464 0.79904-1.4063 2.5871-0.72522 3.7814 0.78184 1.3711 2.7773 1.6857 3.8328 2.9422 1.1086 1.3203 2.7263 2.2388 4.0206 3.4356 1.149 1.2072 3.0323 3.4463 3.175 3.9688-0.35028 0.02469-1.5875-1.0583-1.5875-1.0583 2.2037 3.837 10.912 14.59 12.136 4.7625 0.36909-2.9636-0.57415-6.3317-0.96811-9.2604-0.58288-4.3341-0.33496-8.8855-0.32358-13.229 0.0066-2.4527-0.44027-5.2652 0.14499-7.6729 0.50112-2.0614 2.6331-3.9875 3.9801-5.5562 2.9387-3.4226 5.8703-6.9331 5.933-11.642-0.9326 0.61679-3.5194 1.3759-0.79375-0.79375 0 0 0.23418-0.59609-0.27761-0.8799s-6.9193 2.1532-9.525-0.79375 0.09214-8.9737 0.28793-13.408c0.06403-1.4457 1.1155-3.1179 0.85143-4.4979-0.64003-3.3457-5.12-4.464-7.7409-3.4396m238.43 5.8526c-0.90752 0.45667-0.56621 1.2827-0.0741 1.8957 1.5954 1.9923 3.1459 3.6647 3.6169 6.2746 0.24077 1.3383-0.3175 2.9631 0.0609 4.2177 0.22754 0.75565 0.93663 1.0171 1.6484 0.7702 1.0107-0.35083 1.7701-1.2724 2.413-2.0786 3.4687-4.3656 1.3917-7.5602-3.2068-9.7306-1.1007-0.51991-3.1988-1.9809-4.4582-1.3491m-213.56 2.0849c2.7048 4.5659-4.1177 9.2797-6.2262 12.966-1.7674 3.0901 0.14261 6.1158 0.59055 9.2594 0.67204 4.7165-3.9698 13.2 1.7129 16.444 2.3543 1.3438 4.2897-4.0386 4.6133-5.5959 0.21643-1.0422-0.29051-2.1902 0.16087-3.1747 1.098-2.3942 4.8604-3.9799 7.0861-5.0927 6.5103-3.2552 12.955-3.3412 19.844-4.913 1.4399-0.32835 2.5641-1.275 3.9688-1.6362-1.2224-2.3312-4.8985-2.0296-7.1438-2.127-5.8899-0.25585-11.927 2.9633-17.198 5.3837-1.7523 0.8046-4.686 3.2912-6.5992 3.2472-1.1057-0.0254-1.378-1.7111-1.5753-2.5352-0.58367-2.4395-4.6466-6.64-3.5454-8.9958 1.5809-3.3822 5.5764-5.9904 8.8096-7.5676 1.17-0.57071 4.5299-1.2943 4.7937-2.7758 0.40349-2.2656-5.4017-4.659-7.1475-4.331-0.80672 0.15161-1.4388 1.0459-2.1442 1.4452m52.652 5.5562c3.3703 5.0819 7.6301 3.7282 12.7 3.9688-1.0446 5.8563-7.2181 9.5755-8.2661 15.61-0.54345 3.1295-6e-3 6.5752 3.7682 7.0861 3.5404 0.47943 5.1083-5.5274 8.2021-6.8551 0.81545-0.35004 3.3015-1.502 3.9338-0.40111 0.81148 1.4129-1.7119 3.9942-2.5024 4.9326-2.4559 2.9144-5.6687 5.1496-8.8397 7.2308-1.4782 0.97022-3.723 1.7462-4.5987 3.3764-0.92447 1.7206-1.4449 6.3934 1.4248 6.4852 1.4354 0.046 2.6257-1.0994 3.7031-1.882 1.6375-1.189 3.439-2.082 5.2917-2.8834 2.848-1.2324 5.6227-2.6096 8.7312-3.0665-0.47651 2.6313-3.2112 4.9604-5.2956 6.4622-5.5854 4.0235-12.92 5.2313-19.575 6.3474-2.6178 0.43895-6.1981 1.629-8.7312 0.68422 2.1124 4.5929 8.2468 4.6654 12.435 3.6698 3.9375-0.9361 8.065-1.0348 11.906-2.019 5.3568-1.3727 10.405-4.1238 16.14-3.7187 4.1362 0.29237 7.87 1.5896 11.906 2.022 1.1409 0.12224 3.4025 0.34263 4.3373-0.47996 2.1717-1.9116-2.6429-4.3487-3.8081-4.7882-5.0864-1.918-11.098-1.2636-16.404-1.0358 1.3211-2.4688 4.4672-4.0516 5.3303-6.6146 1.6166-4.8017-7.4012-4.5736-10.093-4.2333 2.2659-3.1596 11.582-11.53 4.2333-15.103-0.74215-0.36089-1.5666-0.60721-2.3812-0.7321-2.341-0.35877-4.785-0.14181-7.1438-0.304 3.1586-3.7028 5.3684-8.1124 8.7416-11.642 1.3909-1.4552 3.529-3.0006 3.0604-5.2917-0.74163-3.6245-4.7792-3.1192-7.5687-3.1787-7.4232-0.15796-13.893 3.4512-20.638 6.3537m75.406-4.7625 0.26458 0.26459-0.26458-0.26459m46.037 9.2604c1.2512 2.4585 4.1889 6.9578 7.4083 6.7278 2.205-0.15742 6.3923-2.5882 8.4286-1.4277 1.8746 1.0681 2.1974 6.573-0.49133 6.8077-3.7399 0.3265-4.9461-1.7825-7.2438-3.9902-0.54822-0.52678-1.8616-1.5457-2.6032-0.80274-0.65141 0.65246-0.10028 1.9846 0.0569 2.7392 0.47572 2.2841 1.483 5.0387 1.1642 7.407-0.18918 1.4041-1.8698 1.9108-3.0155 2.3193-3.1684 1.1298-6.7 1.6486-10.054 1.6507 1.5528 2.7842 4.2402 4.0455 7.4083 3.5909 1.2263-0.17594 4.1397-1.5904 5.1311-0.55139 0.89403 0.93716-0.0259 3.334-0.39211 4.3688-1.2372 3.4946-3.0901 7.5869-2.862 11.377 0.082 1.3637 1.0284 5.285 3.1224 4.2209 1.3465-0.68447 1.8201-3.1573 2.2183-4.4855 1.3769-4.5953 2.4786-9.5485 3.2134-14.288 0.39476-2.545 1.4007-6.2923 4.8993-5.746 2.2458 0.35083 1.2113 5.8333 1.1546 7.3334-0.21246 5.6198-0.83423 10.489-0.15637 16.14 0.24712 2.0587 0.0452 4.9937 2.4569 5.8878 2.667 0.98795 3.13-4.7482 3.1618-6.4169 0.037-2.0995-1.0901-4.0288-1.2832-6.0854-0.34132-3.6785-0.0265-7.4139-0.0265-11.112 0-1.7754-0.53975-4.4424 0.17727-6.0814 1.2488-2.8572 8.2868-1.7177 8.5222-4.7662 0.2196-2.8231-6.8289-1.3578-8.0116-2.5411-1.0107-1.0131-0.0159-3.3181-0.21431-4.603-0.20902-1.3324-1.2541-2.255-1.7965-3.4396 2.1325-0.36697 5.0985-1.2451 6.5537-2.9218 2.3839-2.7474-0.96573-5.3007-3.6433-5.5203-8.4087-0.68977-14.926 4.2087-23.283 4.2087m-184.68 8.2021c-1.248 2.3945-4.762 7.9486-7.4083 8.7312-1.2528-5.2618 2.4167-7.9835 7.4083-8.7312m195.53 4.2333c1.2314-0.21855 6.1397-0.38788 5.805 1.8283-0.20241 1.3398-3.8074 2.4048-4.8149 1.6036-0.73369-0.58314-0.86042-2.5498-0.99007-3.4319m31.485 0.52916c0.37835 4.7863-0.48419 9.8504 0.0767 14.552 0.48154 4.0555 2.5982 9.1797 2.0214 13.229-0.64558 4.5265-3.1882 8.7358-5.2731 12.7 4.9239 1.7941 10.898-4.4135 10.56-9.2604-0.22225-3.202-3.7359-5.0861-3.8867-7.9375-0.12965-2.4572 3.2491-3.9399 3.3708-6.6146 0.20108-4.3685-2.1193-5.7475-3.9608-9.2604-1.2303-2.3408-1.4208-4.9818-2.3786-7.4083h-0.52913m-208.76 6.0854c2.8813 3.9947 5.7359 4.3341 3.175 9.7896 0 0 1.05-0.9611 1.5527-0.82858 0.96142 0.74924-0.30981 2.007-0.75891 2.6807 1.4833-1.047 4.5328-2.2418 5.3081-3.9738 2.1127-4.7207-5.9849-7.5245-9.2768-7.6679m-29.633 9.525c-0.26564 3.9145 0.34899 7.9925 0.51885 11.906 0.09499 2.1913-0.40217 3.8738-2.9001 3.4396 0.54252 0.61316 1.3615 0.80439 1.529 0.88124 0.1658 0.07606 0.53351 0.37204 0.32308 0.44168-0.21043 0.06964-2.9477-1.1685-4.1794-2.1324-1.8339-1.4351-5.2123-3.457-4.5778-5.277 0.4789-1.3734 1.9624-2.2437 2.9496-3.2226 2.0619-2.045 3.561-4.8614 6.3368-6.0367m165.1 7.4083-10.054-0.79375c2.7972-4.6281 9.9131-6.0325 10.054 0.79375m-144.46 1.5875c3.1374 5.9981 14.223 0.57309 19.05 1.3229-3.8126 6.5447-7.9769 9.208-15.346 9.7896 0.63976 1.5917 3.9934 1.4147 5.5562 1.6997 1.211 0.22092 2.2897 1.0901 3.4396 1.2478 1.0433 0.14341 2.0865-0.77946 3.175-0.81544 2.3471-0.0778 4.5151 0.68447 6.8792 0.26934 0.94059-0.1651 4.5246-0.58288 4.1114-2.1204-0.30374-1.1295-3.4025-2.2646-4.3759-2.9268 1.7428-1.5692 3.7375-2.9125 5.5666-4.3908 5.1043-4.1259 0.59505-7.8031-4.2437-8.4944-8.2386-1.1771-15.897 4.722-23.812 4.4185m-7.4083 0.79375c0.95303 3.3917 0.24659 7.7653 2.1482 10.847 2.7112 4.3942 6.731 1.883 7.2795-2.3802 0.36512-2.8382-2.7054-5.1022-2.2839-7.6729-2.8451 1.5632-4.3307-1.5594-7.1438-0.79375m141.29-0.26458c1.3608 0.24553 2.4964 1.0083 3.7042 1.656 0.83793 0.44952 5.1546 2.4085 5.3229 3.1885 0.5752 2.6633-4.3947 1.933-5.5875 1.5653-3.5163-1.084-3.6716-3.1237-3.4396-6.4098" fill="#343633"/></g></svg>
