<svg width="48" height="48" version="1.1" viewBox="0 0 12.7 12.7" xmlns="http://www.w3.org/2000/svg">
 <g>
  <path d="m3.0455 12.691c-0.65138-0.023535-1.1069-0.1206-1.5101-0.32178-0.80815-0.40325-1.3275-1.1345-1.4704-2.0705-0.057728-0.37801-0.057962-0.39395-0.057962-3.9486s2.3401e-4 -3.5706 0.057962-3.9486c0.14294-0.93598 0.66229-1.6673 1.4704-2.0705 0.34112-0.17021 0.68309-0.25714 1.202-0.30556 0.28668-0.026747 6.9385-0.026747 7.2251 0 0.8504 0.07934 1.4195 0.32176 1.9066 0.81215 0.48956 0.49288 0.72638 1.0514 0.80555 1.9 0.02675 0.28668 0.02675 6.9385 0 7.2251-0.04842 0.51893-0.13534 0.8609-0.30556 1.202-0.39762 0.79687-1.1031 1.3054-2.0334 1.4658-0.35123 0.06055-0.30927 0.05987-3.8317 0.06229-1.8406 0.0013-3.3969 4.74e-4 -3.4585-0.0018z" fill="#fdbd00" stroke-width=".014002"/>
  <path d="m7.1626 11c-0.38761-0.050669-0.79883-0.19013-1.2352-0.41892-0.36263-0.19011-0.67714-0.42613-1.0077-0.7562-0.705-0.70404-1.2082-1.5453-2.289-3.8269-0.26672-0.56304-0.56702-1.1582-0.67747-1.3427-0.22445-0.37485-0.3639-0.53549-0.82099-0.94574-0.25077-0.22507-0.29322-0.28233-0.29339-0.39574-1.5991e-4 -0.10608 0.042152-0.16952 0.17784-0.26665 0.29071-0.20809 0.65825-0.44706 0.85591-0.55651 0.58943-0.32636 1.149-0.4645 1.6783-0.41432 0.80164 0.07601 1.5205 0.44429 2.2403 1.1477 0.62625 0.61202 1.1676 1.4569 1.7084 2.6665 0.028066 0.062769 0.057709 0.11413 0.065873 0.11413 0.00816 0 0.052354-0.087608 0.098199-0.19468 0.12474-0.29134 1.8174-3.5929 1.8586-3.6254 0.06686-0.052592 0.081633-0.045456 0.31831 0.15377 0.43748 0.36826 0.78365 0.79017 0.90687 1.1053 0.05367 0.13726 0.1531 0.48628 0.18643 0.6544 0.12198 0.61534 0.02608 1.1238-0.30773 1.6313-0.36502 0.55502-0.79891 0.85327-1.4333 0.98523-0.25173 0.05236-0.41504 0.066088-0.6952 0.05844-0.23567-0.00643-0.26784-0.010449-0.44213-0.0552-0.21853-0.056109-0.19468-0.051669-0.19468-0.036256 0 0.019359 0.32301 0.6844 0.43745 0.90065 0.31548 0.59616 0.63956 1.121 0.86821 1.4061 0.14758 0.18399 0.42583 0.48708 0.44716 0.48708 0.024208 0 0.27875-0.25575 0.40336-0.40527 0.22106-0.26525 0.54289-0.72797 0.93215-1.3402 0.50519-0.79454 0.83566-1.2647 0.87278-1.2418 0.0362 0.02237-0.27329 0.9319-0.45909 1.3492-0.3438 0.77217-0.67034 1.272-1.1944 1.8281-0.09504 0.10086-0.17279 0.18976-0.17279 0.19755 0 0.042805 0.32479 0.26914 0.57734 0.40233 0.28381 0.14968 0.51352 0.23651 1.1446 0.43269 0.10154 0.03157 0.18462 0.06241 0.18462 0.06854 0 0.02098-0.70285 0.01293-0.85758-0.0098-0.48638-0.07153-0.95736-0.24059-1.3051-0.46845-0.073786-0.04835-0.14025-0.0879-0.14769-0.0879-0.00744 0-0.045391 0.02353-0.084324 0.0523-0.51339 0.37927-1.1066 0.6457-1.6332 0.73354-0.17794 0.02968-0.5366 0.03659-0.71161 0.01372z" fill="#382700" stroke-width=".013426"/>
 </g>
</svg>
